<svg width="98" height="98" viewBox="0 0 98 98" fill="none" xmlns="http://www.w3.org/2000/svg">
<circle cx="49" cy="49" r="49" fill="#33B0ED"/>
<path d="M60.7109 65H37.3203V60.3594L48.3594 48.5938C49.875 46.9375 50.9922 45.4922 51.7109 44.2578C52.4453 43.0234 52.8125 41.8516 52.8125 40.7422C52.8125 39.2266 52.4297 38.0391 51.6641 37.1797C50.8984 36.3047 49.8047 35.8672 48.3828 35.8672C46.8516 35.8672 45.6406 36.3984 44.75 37.4609C43.875 38.5078 43.4375 39.8906 43.4375 41.6094H36.6406C36.6406 39.5312 37.1328 37.6328 38.1172 35.9141C39.1172 34.1953 40.5234 32.8516 42.3359 31.8828C44.1484 30.8984 46.2031 30.4062 48.5 30.4062C52.0156 30.4062 54.7422 31.25 56.6797 32.9375C58.6328 34.625 59.6094 37.0078 59.6094 40.0859C59.6094 41.7734 59.1719 43.4922 58.2969 45.2422C57.4219 46.9922 55.9219 49.0312 53.7969 51.3594L46.0391 59.5391H60.7109V65Z" fill="white"/>
</svg>
