<svg width="98" height="98" viewBox="0 0 98 98" fill="none" xmlns="http://www.w3.org/2000/svg">
<circle cx="49" cy="49" r="49" fill="#33B0ED"/>
<path d="M44.2109 44.9375H47.8203C49.5391 44.9375 50.8125 44.5078 51.6406 43.6484C52.4688 42.7891 52.8828 41.6484 52.8828 40.2266C52.8828 38.8516 52.4688 37.7812 51.6406 37.0156C50.8281 36.25 49.7031 35.8672 48.2656 35.8672C46.9688 35.8672 45.8828 36.2266 45.0078 36.9453C44.1328 37.6484 43.6953 38.5703 43.6953 39.7109H36.9219C36.9219 37.9297 37.3984 36.3359 38.3516 34.9297C39.3203 33.5078 40.6641 32.3984 42.3828 31.6016C44.1172 30.8047 46.0234 30.4062 48.1016 30.4062C51.7109 30.4062 54.5391 31.2734 56.5859 33.0078C58.6328 34.7266 59.6562 37.1016 59.6562 40.1328C59.6562 41.6953 59.1797 43.1328 58.2266 44.4453C57.2734 45.7578 56.0234 46.7656 54.4766 47.4688C56.3984 48.1562 57.8281 49.1875 58.7656 50.5625C59.7188 51.9375 60.1953 53.5625 60.1953 55.4375C60.1953 58.4688 59.0859 60.8984 56.8672 62.7266C54.6641 64.5547 51.7422 65.4688 48.1016 65.4688C44.6953 65.4688 41.9062 64.5703 39.7344 62.7734C37.5781 60.9766 36.5 58.6016 36.5 55.6484H43.2734C43.2734 56.9297 43.75 57.9766 44.7031 58.7891C45.6719 59.6016 46.8594 60.0078 48.2656 60.0078C49.875 60.0078 51.1328 59.5859 52.0391 58.7422C52.9609 57.8828 53.4219 56.75 53.4219 55.3438C53.4219 51.9375 51.5469 50.2344 47.7969 50.2344H44.2109V44.9375Z" fill="white"/>
</svg>
