<svg width="66" height="66" viewBox="0 0 66 66" fill="none" xmlns="http://www.w3.org/2000/svg">
<circle cx="33" cy="33" r="33" fill="white"/>
<path d="M29.486 38.8589H28.1768V36.6999H30.3035L30.507 37.4994C30.6635 38.2301 30.1251 38.8589 29.486 38.8589Z" fill="white" stroke="#33B0ED"/>
<path d="M43.7615 20.4855V40.8447C43.5578 40.7248 43.3178 40.5852 43.0466 40.4302C42.1335 39.9084 40.8661 39.2122 39.4504 38.5154C38.0358 37.8192 36.4658 37.1188 34.9483 36.5914C33.6356 36.1352 32.3333 35.798 31.1922 35.7181V25.6232C32.2725 25.5395 33.5358 25.203 34.8225 24.7515C36.3243 24.2245 37.9026 23.5247 39.3349 22.8291C40.7685 22.1329 42.0634 21.4372 42.9995 20.9158C43.29 20.754 43.5462 20.6088 43.7615 20.4855Z" fill="white" stroke="#33B0ED"/>
<path d="M22.1486 34.6204C24.3294 34.6204 26.0973 32.8525 26.0973 30.6717C26.0973 28.4908 24.3294 26.7229 22.1486 26.7229C19.9677 26.7229 18.1998 28.4908 18.1998 30.6717C18.1998 32.8525 19.9677 34.6204 22.1486 34.6204Z" fill="#33B0ED"/>
<path d="M46.6307 28.3024H44.2615V33.0409H46.6307C47.9733 33.0409 49 32.0143 49 30.6717C49 29.3291 47.9733 28.3024 46.6307 28.3024Z" fill="#33B0ED"/>
<path d="M29.7301 45.8348C29.0194 46.3087 27.7558 46.7825 26.0973 46.9405C25.6235 47.0195 25.1496 46.7036 24.9917 46.1507L21.5168 35.3312C21.5168 35.3312 28.4665 30.4348 28.4665 36.1999C28.4665 40.5435 29.6512 42.8338 30.204 43.7025C30.5989 44.2553 30.5989 44.9661 30.204 45.5189C30.046 45.6769 29.8881 45.7559 29.7301 45.8348V45.8348Z" fill="#33B0ED"/>
<path d="M22.9383 36.1999H30.8358V25.1434H22.9383C22.0696 25.1434 21.3588 25.8542 21.3588 26.7229V34.6204C21.3588 35.4891 22.0696 36.1999 22.9383 36.1999Z" fill="#33B0ED"/>
</svg>
