<svg width="53" height="63" viewBox="0 0 53 63" fill="none" xmlns="http://www.w3.org/2000/svg">
<path d="M48.5538 20.0205C46.096 20.0205 44.1076 22.0256 44.1076 24.5004V40.3798C44.1076 41.5688 44.576 42.7092 45.4098 43.55C46.2437 44.3908 47.3746 44.8631 48.5538 44.8631C49.733 44.8631 50.8639 44.3908 51.6977 43.55C52.5316 42.7092 53 41.5688 53 40.3798V24.5004C53 22.0256 51.0115 20.0205 48.5538 20.0205V20.0205ZM4.44622 20.0205C1.98846 20.0205 0 22.0256 0 24.5004V40.3798C0 41.5688 0.468439 42.7092 1.30227 43.55C2.13609 44.3908 3.26701 44.8631 4.44622 44.8631C5.62543 44.8631 6.75634 44.3908 7.59016 43.55C8.42399 42.7092 8.89243 41.5688 8.89243 40.3798V24.5004C8.89289 23.9116 8.77817 23.3286 8.55485 22.7846C8.33152 22.2407 8.00398 21.7465 7.59098 21.3303C7.17797 20.9142 6.68761 20.5843 6.14799 20.3595C5.60836 20.1348 5.03007 20.0196 4.44622 20.0205V20.0205ZM35.3472 6.66848L38.0171 1.80301C38.0951 1.66449 38.1451 1.51171 38.164 1.35356C38.183 1.1954 38.1706 1.03502 38.1276 0.881728C38.0846 0.728438 38.0118 0.585296 37.9134 0.460621C37.8151 0.335945 37.6932 0.232221 37.5547 0.155476C37.4167 0.0769824 37.2645 0.0269423 37.1071 0.00826438C36.9497 -0.0104136 36.7902 0.00264299 36.6378 0.0466754C36.4855 0.0907078 36.3433 0.164838 36.2197 0.264756C36.096 0.364673 35.9932 0.488386 35.9174 0.628702L33.1745 5.60635C31.1305 4.78258 28.8778 4.31637 26.5 4.31637C24.1222 4.31637 21.8695 4.77908 19.8255 5.60284L17.0826 0.632208C17.0068 0.491891 16.904 0.368179 16.7803 0.268261C16.6567 0.168343 16.5145 0.0942137 16.3622 0.0501813C16.2098 0.00614896 16.0503 -0.00690759 15.8929 0.0117703C15.7355 0.0304483 15.5833 0.0804875 15.4453 0.158981C15.3075 0.236414 15.1863 0.340491 15.0884 0.465249C14.9906 0.590008 14.9181 0.732999 14.8752 0.886035C14.8322 1.03907 14.8197 1.19915 14.8381 1.3571C14.8566 1.51504 14.9058 1.66776 14.9829 1.80651L17.6528 6.67198C12.845 9.43423 9.63289 14.3733 9.63289 20.0205C9.63289 20.059 9.63289 20.0941 9.63984 20.1397C9.63289 20.1607 9.63289 20.1852 9.63289 20.2063V20.2098H43.3636V20.2063V20.1397V20.0205C43.3671 14.3733 40.155 9.43773 35.3472 6.66848V6.66848ZM18.713 13.5671C18.5549 13.5659 18.3984 13.5334 18.2527 13.4713C18.107 13.4092 17.9749 13.3187 17.8638 13.2051C17.6396 12.9757 17.5149 12.6658 17.5172 12.3437C17.5195 12.0216 17.6486 11.7135 17.8761 11.4874C18.1037 11.2613 18.411 11.1355 18.7304 11.1378C19.0499 11.1402 19.3554 11.2704 19.5796 11.4998C19.8039 11.7292 19.9286 12.0391 19.9263 12.3612C19.924 12.6834 19.7949 12.9914 19.5673 13.2175C19.3398 13.4437 19.0325 13.5694 18.713 13.5671ZM34.287 13.5671C33.9838 13.5438 33.7004 13.4059 33.4937 13.181C33.287 12.9562 33.1722 12.6608 33.1722 12.3542C33.1722 12.0476 33.287 11.7523 33.4937 11.5274C33.7004 11.3025 33.9838 11.1646 34.287 11.1413C34.606 11.1413 34.9119 11.2691 35.1375 11.4966C35.363 11.724 35.4898 12.0325 35.4898 12.3542C35.4898 12.6759 35.363 12.9844 35.1375 13.2118C34.9119 13.4393 34.606 13.5671 34.287 13.5671V13.5671ZM9.63289 45.9954C9.63289 48.2599 11.458 50.1002 13.7141 50.1002H15.7512V58.5166C15.7512 59.7057 16.2197 60.846 17.0535 61.6868C17.8873 62.5276 19.0182 63 20.1974 63C21.3766 63 22.5076 62.5276 23.3414 61.6868C24.1752 60.846 24.6436 59.7057 24.6436 58.5166V50.1002H28.3494V58.5166C28.3494 60.9949 30.3379 62.9965 32.7887 62.9965C35.2534 62.9965 37.2418 60.9949 37.2418 58.5166V50.1002H39.279C41.5316 50.1002 43.3602 48.2634 43.3602 45.9954V21.1352H9.63289V45.9954Z" fill="white"/>
</svg>
