<svg width="55" height="66" viewBox="0 0 55 66" fill="none" xmlns="http://www.w3.org/2000/svg">
<path d="M45.6563 34.3516C45.625 29.0234 48.0391 25.0078 52.9141 22.0469C50.1875 18.1406 46.0625 15.9922 40.625 15.5781C35.4766 15.1719 29.8437 18.5781 27.7812 18.5781C25.6016 18.5781 20.6172 15.7188 16.6953 15.7188C8.60156 15.8438 0 22.1719 0 35.0469C0 38.8516 0.695312 42.7813 2.08594 46.8281C3.94531 52.1563 10.6484 65.2109 17.6406 65C21.2969 64.9141 23.8828 62.4062 28.6406 62.4062C33.2578 62.4062 35.6484 65 39.7266 65C46.7813 64.8984 52.8437 53.0313 54.6094 47.6875C45.1484 43.2266 45.6563 34.625 45.6563 34.3516V34.3516ZM37.4453 10.5234C41.4062 5.82031 41.0469 1.53906 40.9297 0C37.4297 0.203125 33.3828 2.38281 31.0781 5.0625C28.5391 7.9375 27.0469 11.4922 27.3672 15.5C31.1484 15.7891 34.6016 13.8437 37.4453 10.5234V10.5234Z" fill="white"/>
</svg>
