<svg width="66" height="66" viewBox="0 0 66 66" fill="none" xmlns="http://www.w3.org/2000/svg">
<circle cx="33" cy="33" r="33" fill="white"/>
<path d="M34.3 38.3333H31.7C30.985 38.3333 30.4 37.7333 30.4 37H21.313V42.3333C21.313 43.8 22.483 45 23.913 45H42.1C43.53 45 44.7 43.8 44.7 42.3333V37H35.6C35.6 37.7333 35.015 38.3333 34.3 38.3333ZM43.4 26.3333H38.2C38.2 23.3867 35.873 21 33 21C30.127 21 27.8 23.3867 27.8 26.3333H22.6C21.17 26.3333 20 27.5333 20 29V33C20 34.48 21.157 35.6667 22.6 35.6667H30.4V34.3333C30.4 33.6 30.985 33 31.7 33H34.3C35.015 33 35.6 33.6 35.6 34.3333V35.6667H43.4C44.83 35.6667 46 34.4667 46 33V29C46 27.5333 44.83 26.3333 43.4 26.3333ZM30.4 26.3333C30.4 24.8667 31.57 23.6667 33 23.6667C34.43 23.6667 35.6 24.8667 35.6 26.3333H30.387H30.4Z" fill="#33B0ED"/>
</svg>
