<svg width="42" height="48" viewBox="0 0 42 48" fill="none" xmlns="http://www.w3.org/2000/svg">
<path fill-rule="evenodd" clip-rule="evenodd" d="M3 6C3 4.4087 3.63214 2.88258 4.75736 1.75736C5.88258 0.632141 7.4087 0 9 0H33C34.5913 0 36.1174 0.632141 37.2426 1.75736C38.3679 2.88258 39 4.4087 39 6V42C39.7956 42 40.5587 42.3161 41.1213 42.8787C41.6839 43.4413 42 44.2044 42 45C42 45.7956 41.6839 46.5587 41.1213 47.1213C40.5587 47.6839 39.7956 48 39 48H30C29.2044 48 28.4413 47.6839 27.8787 47.1213C27.3161 46.5587 27 45.7956 27 45V39C27 38.2044 26.6839 37.4413 26.1213 36.8787C25.5587 36.3161 24.7956 36 24 36H18C17.2044 36 16.4413 36.3161 15.8787 36.8787C15.3161 37.4413 15 38.2044 15 39V45C15 45.7956 14.6839 46.5587 14.1213 47.1213C13.5587 47.6839 12.7956 48 12 48H3C2.20435 48 1.44129 47.6839 0.87868 47.1213C0.31607 46.5587 0 45.7956 0 45C0 44.2044 0.31607 43.4413 0.87868 42.8787C1.44129 42.3161 2.20435 42 3 42V6ZM12 9H18V15H12V9ZM18 21H12V27H18V21ZM24 9H30V15H24V9ZM30 21H24V27H30V21Z" fill="#33B0ED"/>
</svg>
