<svg width="66" height="66" viewBox="0 0 66 66" fill="none" xmlns="http://www.w3.org/2000/svg">
<circle cx="33" cy="33" r="33" fill="white"/>
<path fill-rule="evenodd" clip-rule="evenodd" d="M38.9472 30.5167C37.5172 31.9467 35.5778 32.75 33.5555 32.75C31.5332 32.75 29.5938 31.9467 28.1638 30.5167C26.7338 29.0867 25.9305 27.1473 25.9305 25.125C25.9305 23.1027 26.7338 21.1633 28.1638 19.7333C29.5938 18.3034 31.5332 17.5 33.5555 17.5C35.5778 17.5 37.5172 18.3034 38.9472 19.7333C40.3771 21.1633 41.1805 23.1027 41.1805 25.125C41.1805 27.1473 40.3771 29.0867 38.9472 30.5167ZM33.5555 35.2917C41.6761 35.2917 45.6487 38.4077 47.4533 41.3154C45.7883 43.4027 43.6741 45.0877 41.2679 46.2451C38.8617 47.4024 36.2255 48.0022 33.5555 48C30.8855 48.0022 28.2493 47.4024 25.8431 46.2451C23.4369 45.0877 21.3227 43.4027 19.6577 41.3154C21.4648 38.4052 25.4349 35.2917 33.5555 35.2917Z" fill="#33B0ED"/>
</svg>
