<svg width="66" height="68" viewBox="0 0 66 68" fill="none" xmlns="http://www.w3.org/2000/svg">
<circle cx="33" cy="33" r="33" fill="white"/>
<path d="M29.19 21.5033C31.11 19.3716 34.119 18 37.5 18C43.299 18 48 22.0351 48 27.0135C48 30.0015 46.305 32.65 43.698 34.2905C43.633 34.3303 43.567 34.3684 43.5 34.4046V40.4888C43.5 40.7879 43.4108 41.0802 43.2439 41.3282C43.077 41.5762 42.84 41.7687 42.5632 41.8811C42.2864 41.9934 41.9824 42.0204 41.6902 41.9586C41.398 41.8968 41.1309 41.7491 40.923 41.5344L39.213 39.7707C40.8165 37.8719 41.76 35.5403 41.76 33.0211C41.76 26.9114 36.213 21.9119 29.19 21.5033Z" fill="#33B0ED"/>
<path d="M30.5775 41.8648L25.077 47.5434C24.8691 47.7581 24.602 47.9059 24.3098 47.9676C24.0176 48.0294 23.7136 48.0024 23.4368 47.8901C23.16 47.7778 22.923 47.5853 22.7561 47.3372C22.5892 47.0892 22.5 46.7969 22.5 46.4978V40.4137C22.433 40.3774 22.367 40.3393 22.302 40.2995C19.6935 38.659 18 36.0106 18 33.0226C18 28.0441 22.701 24.009 28.5 24.009C34.299 24.009 39 28.0441 39 33.0226C39 37.1177 35.8185 40.5759 31.461 41.6726C31.169 41.7475 30.8743 41.8117 30.5775 41.8648Z" fill="#33B0ED"/>
</svg>
