<svg width="136" height="122" viewBox="0 0 136 122" fill="none" xmlns="http://www.w3.org/2000/svg">
<path d="M134.574 54.1825C134.574 53.4427 134.171 52.703 133.969 51.9633C133.658 50.6583 133.253 49.3773 132.759 48.1303C132.423 47.3233 131.952 46.5163 131.548 45.6421C131.145 44.7679 130.54 43.6247 129.934 42.6833C129.329 41.7418 128.522 41.2711 128.522 40.7331C128.522 40.1951 127.177 39.0519 126.438 38.245C125.698 37.438 125.025 36.9 124.286 36.2275L121.798 34.0084L119.377 32.3945C118.426 31.8129 117.438 31.2962 116.418 30.8478L113.795 29.6374C112.697 29.2306 111.574 28.8936 110.433 28.6287C109.529 28.3628 108.608 28.1605 107.676 28.0234H106.465C103.875 19.9488 98.8066 12.8956 91.9797 7.86539C85.1529 2.83519 76.9147 0.0837741 68.4352 0.00188249C59.9557 -0.0800091 51.666 2.51179 44.7433 7.4092C37.8205 12.3066 32.6168 19.2606 29.8711 27.2837H28.6606C27.7286 27.4208 26.8073 27.6231 25.9035 27.8889C24.7626 28.1539 23.6396 28.4908 22.5412 28.8976L19.9185 30.1081C18.8986 30.5564 17.91 31.0732 16.9597 31.6548L14.5388 34.0084L12.0507 36.0931C11.3109 36.7655 10.5712 37.3707 9.89875 38.1105C9.22628 38.8502 8.48657 39.7916 7.8141 40.5986C7.14163 41.4056 6.60365 42.1453 6.06568 43.0195C5.5277 43.8937 4.98973 44.9696 4.45175 45.9783C3.91378 46.987 3.57754 47.6595 3.24131 48.4665C2.74665 49.7136 2.34213 50.9946 2.03087 52.2996C2.03087 53.0393 1.56014 53.779 1.42564 54.5187C1.00707 56.6232 0.781981 58.7616 0.753174 60.9072C0.784699 62.9602 0.987138 65.0071 1.3584 67.0266C1.3584 67.6991 1.69463 68.3043 1.82912 68.9768C2.16151 70.2979 2.56559 71.5999 3.03957 72.8771L3.84653 74.8273C4.43849 76.124 5.11232 77.3818 5.86394 78.5931L6.80539 80.0725C6.90214 80.261 7.01462 80.4409 7.14163 80.6105L7.47786 81.0812C10.6098 85.2571 14.671 88.6465 19.3398 90.9809C24.0086 93.3153 29.1567 94.5306 34.3766 94.5306C34.3916 90.9694 35.8185 87.5595 38.3442 85.0488C40.8548 82.5231 44.2648 81.0962 47.826 81.0812C50.1916 81.059 52.5178 81.687 54.5507 82.8969V60.9072C54.5507 57.3402 55.9677 53.9193 58.4899 51.397C61.0122 48.8748 64.4331 47.4578 68.0001 47.4578C71.5671 47.4578 74.988 48.8748 77.5102 51.397C80.0324 53.9193 81.4494 57.3402 81.4494 60.9072V83.5694C83.4927 82.3841 85.812 81.7579 88.1741 81.7537C91.8172 81.7877 95.2987 83.2625 97.8577 85.8557C100.122 88.1961 101.46 91.2784 101.624 94.5306C106.843 94.5306 111.992 93.3153 116.66 90.9809C121.329 88.6465 125.39 85.2571 128.522 81.0812L128.858 80.745C128.985 80.5754 129.098 80.3955 129.195 80.207L130.136 78.7276C130.888 77.5163 131.562 76.2585 132.154 74.9618L132.961 73.0116C133.435 71.7344 133.839 70.4324 134.171 69.1113C134.171 68.4388 134.507 67.8336 134.642 67.1611C135.02 65.0974 135.223 63.0052 135.247 60.9072C135.239 58.6492 135.014 56.3972 134.574 54.1825V54.1825Z" fill="black"/>
<path d="M83.5337 90.3613L74.7243 98.8344V60.9071C74.7243 59.1236 74.0158 57.4132 72.7547 56.1521C71.4936 54.8909 69.7831 54.1824 67.9996 54.1824C66.2161 54.1824 64.5057 54.8909 63.2446 56.1521C61.9834 57.4132 61.2749 59.1236 61.2749 60.9071V98.4981L52.6001 89.756C51.9731 89.129 51.2287 88.6317 50.4095 88.2923C49.5903 87.953 48.7123 87.7784 47.8256 87.7784C46.9389 87.7784 46.0608 87.953 45.2416 88.2923C44.4224 88.6317 43.678 89.129 43.051 89.756C42.424 90.383 41.9267 91.1274 41.5873 91.9466C41.248 92.7658 41.0734 93.6439 41.0734 94.5306C41.0734 95.4173 41.248 96.2953 41.5873 97.1145C41.9267 97.9337 42.424 98.6781 43.051 99.3051L63.2251 119.479C63.8535 120.102 64.5987 120.596 65.418 120.93C66.2373 121.265 67.1146 121.434 67.9996 121.429C69.731 121.422 71.3931 120.748 72.6397 119.546L92.8137 100.045C93.5273 99.456 94.1117 98.7263 94.5304 97.9014C94.9491 97.0764 95.193 96.1739 95.247 95.2504C95.301 94.3268 95.1638 93.4021 94.8441 92.534C94.5244 91.6659 94.029 90.873 93.3889 90.2051C92.7488 89.5372 91.9778 89.0085 91.1241 88.6522C90.2703 88.2958 89.3522 88.1195 88.4272 88.1341C87.5022 88.1488 86.5902 88.3541 85.7482 88.7374C84.9062 89.1206 84.1523 89.6734 83.5337 90.3613V90.3613Z" fill="black"/>
<path d="M134.574 54.1825C134.574 53.4427 134.171 52.703 133.969 51.9633C133.658 50.6583 133.253 49.3773 132.759 48.1303C132.423 47.3233 131.952 46.5163 131.548 45.6421C131.145 44.7679 130.54 43.6247 129.934 42.6833C129.329 41.7418 128.522 41.2711 128.522 40.7331C128.522 40.1951 127.177 39.0519 126.438 38.245C125.698 37.438 125.025 36.9 124.286 36.2275L121.798 34.0084L119.377 32.3945C118.426 31.8129 117.438 31.2962 116.418 30.8478L113.795 29.6374C112.697 29.2306 111.574 28.8936 110.433 28.6287C109.529 28.3628 108.608 28.1605 107.676 28.0234H106.465C103.875 19.9488 98.8066 12.8956 91.9797 7.86539C85.1529 2.83519 76.9147 0.0837741 68.4352 0.00188249C59.9557 -0.0800091 51.666 2.51179 44.7433 7.4092C37.8205 12.3066 32.6168 19.2606 29.8711 27.2837H28.6606C27.7286 27.4208 26.8073 27.6231 25.9035 27.8889C24.7626 28.1539 23.6396 28.4908 22.5412 28.8976L19.9185 30.1081C18.8986 30.5564 17.91 31.0732 16.9597 31.6548L14.5388 34.0084L12.0507 36.0931C11.3109 36.7655 10.5712 37.3707 9.89875 38.1105C9.22628 38.8502 8.48657 39.7916 7.8141 40.5986C7.14163 41.4056 6.60365 42.1453 6.06568 43.0195C5.5277 43.8937 4.98973 44.9696 4.45175 45.9783C3.91378 46.987 3.57754 47.6595 3.24131 48.4665C2.74665 49.7136 2.34213 50.9946 2.03087 52.2996C2.03087 53.0393 1.56014 53.779 1.42564 54.5187C1.00707 56.6232 0.781981 58.7616 0.753174 60.9072C0.784699 62.9602 0.987138 65.0071 1.3584 67.0266C1.3584 67.6991 1.69463 68.3043 1.82912 68.9768C2.16151 70.2979 2.56559 71.5999 3.03957 72.8771L3.84653 74.8273C4.43849 76.124 5.11232 77.3818 5.86394 78.5931L6.80539 80.0725C6.90214 80.261 7.01462 80.4409 7.14163 80.6105L7.47786 81.0812C10.6098 85.2571 14.671 88.6465 19.3398 90.9809C24.0086 93.3153 29.1567 94.5306 34.3766 94.5306C34.3916 90.9694 35.8185 87.5595 38.3442 85.0488C40.8548 82.5231 44.2648 81.0962 47.826 81.0812C50.1916 81.059 52.5178 81.687 54.5507 82.8969V60.9072C54.5507 57.3402 55.9677 53.9193 58.4899 51.397C61.0122 48.8748 64.4331 47.4578 68.0001 47.4578C71.5671 47.4578 74.988 48.8748 77.5102 51.397C80.0324 53.9193 81.4494 57.3402 81.4494 60.9072V83.5694C83.4927 82.3841 85.812 81.7579 88.1741 81.7537C91.8172 81.7877 95.2987 83.2625 97.8577 85.8557C100.122 88.1961 101.46 91.2784 101.624 94.5306C106.843 94.5306 111.992 93.3153 116.66 90.9809C121.329 88.6465 125.39 85.2571 128.522 81.0812L128.858 80.745C128.985 80.5754 129.098 80.3955 129.195 80.207L130.136 78.7276C130.888 77.5163 131.562 76.2585 132.154 74.9618L132.961 73.0116C133.435 71.7344 133.839 70.4324 134.171 69.1113C134.171 68.4388 134.507 67.8336 134.642 67.1611C135.02 65.0974 135.223 63.0052 135.247 60.9072C135.239 58.6492 135.014 56.3972 134.574 54.1825V54.1825Z" fill="white"/>
<path d="M83.5337 90.3613L74.7243 98.8344V60.9071C74.7243 59.1236 74.0158 57.4132 72.7547 56.1521C71.4936 54.8909 69.7831 54.1824 67.9996 54.1824C66.2161 54.1824 64.5057 54.8909 63.2446 56.1521C61.9834 57.4132 61.2749 59.1236 61.2749 60.9071V98.4981L52.6001 89.756C51.9731 89.129 51.2287 88.6317 50.4095 88.2923C49.5903 87.953 48.7123 87.7784 47.8256 87.7784C46.9389 87.7784 46.0608 87.953 45.2416 88.2923C44.4224 88.6317 43.678 89.129 43.051 89.756C42.424 90.383 41.9267 91.1274 41.5873 91.9466C41.248 92.7658 41.0734 93.6439 41.0734 94.5306C41.0734 95.4173 41.248 96.2953 41.5873 97.1145C41.9267 97.9337 42.424 98.6781 43.051 99.3051L63.2251 119.479C63.8535 120.102 64.5987 120.596 65.418 120.93C66.2373 121.265 67.1146 121.434 67.9996 121.429C69.731 121.422 71.3931 120.748 72.6397 119.546L92.8137 100.045C93.5273 99.456 94.1117 98.7263 94.5304 97.9014C94.9491 97.0764 95.193 96.1739 95.247 95.2504C95.301 94.3268 95.1638 93.4021 94.8441 92.534C94.5244 91.6659 94.029 90.873 93.3889 90.2051C92.7488 89.5372 91.9778 89.0085 91.1241 88.6522C90.2703 88.2958 89.3522 88.1195 88.4272 88.1341C87.5022 88.1488 86.5902 88.3541 85.7482 88.7374C84.9062 89.1206 84.1523 89.6734 83.5337 90.3613V90.3613Z" fill="white"/>
</svg>
