<svg width="60" height="43" viewBox="0 0 60 43" fill="none" xmlns="http://www.w3.org/2000/svg">
<path d="M6.63139 0H53.3686C57.7778 0 60 2.08113 60 6.31393V36.0141C60 40.2116 57.7778 42.328 53.3686 42.328H6.63139C2.22222 42.328 0 40.2116 0 36.0141V6.31393C0 2.08113 2.22222 0 6.63139 0ZM29.9824 30.3351L53.7566 10.8289C54.6032 10.1235 55.2734 8.50088 54.2152 7.05467C53.1922 5.60847 51.3228 5.57319 50.0882 6.45503L29.9824 20.0705L9.91182 6.45503C8.67725 5.57319 6.80776 5.60847 5.78483 7.05467C4.72663 8.50088 5.39683 10.1235 6.24339 10.8289L29.9824 30.3351Z" fill="#33B0ED"/>
</svg>
