<svg width="66" height="66" viewBox="0 0 66 66" fill="none" xmlns="http://www.w3.org/2000/svg">
<circle cx="33" cy="33" r="33" fill="white"/>
<path d="M33 21C25.8318 21 20 26.8318 20 34C20 41.1682 25.8318 47 33 47C40.1682 47 46 41.1682 46 34C46 26.8318 40.1682 21 33 21ZM22.6 34C22.6 32.8313 22.8028 31.7094 23.1603 30.6603L25.2 32.7L27.8 35.3V37.9L30.4 40.5L31.7 41.8V44.3103C26.5793 43.6668 22.6 39.2936 22.6 34ZM41.229 40.3349C40.3801 39.6511 39.0931 39.2 38.2 39.2V37.9C38.2 37.2104 37.9261 36.5491 37.4385 36.0615C36.9509 35.5739 36.2896 35.3 35.6 35.3H30.4V31.4C31.0896 31.4 31.7509 31.1261 32.2385 30.6385C32.7261 30.1509 33 29.4896 33 28.8V27.5H34.3C34.9896 27.5 35.6509 27.2261 36.1385 26.7385C36.6261 26.2509 36.9 25.5896 36.9 24.9V24.3657C40.7064 25.9114 43.4 29.645 43.4 34C43.3998 36.2941 42.636 38.5229 41.229 40.3349V40.3349Z" fill="#33B0ED"/>
</svg>
