<svg width="60" height="60" viewBox="0 0 60 60" fill="none" xmlns="http://www.w3.org/2000/svg">
<path d="M30 0C13.5 0 0 13.47 0 30.06C0 45.0599 10.98 57.5099 25.32 59.7599V38.76H17.7V30.06H25.32V23.43C25.32 15.9 29.79 11.76 36.66 11.76C39.93 11.76 43.3499 12.33 43.3499 12.33V19.74H39.5699C35.85 19.74 34.68 22.05 34.68 24.42V30.06H43.0199L41.6699 38.76H34.68V59.7599C41.7493 58.6435 48.1866 55.0365 52.8297 49.5901C57.4729 44.1438 60.016 37.2169 59.9999 30.06C59.9999 13.47 46.4999 0 30 0V0Z" fill="#3B5998"/>
</svg>
