<svg width="143" height="128" viewBox="0 0 143 128" fill="none" xmlns="http://www.w3.org/2000/svg">
<path d="M139.54 26.2311C137.322 21.0979 134.122 16.4464 130.122 12.5367C126.118 8.61541 121.398 5.4992 116.217 3.35755C110.846 1.12797 105.084 -0.0132608 99.2673 0.000116251C91.1067 0.000116251 83.1448 2.23289 76.2257 6.45035C74.5705 7.45923 72.9979 8.56735 71.5082 9.7747C70.0184 8.56735 68.4459 7.45923 66.7906 6.45035C59.8716 2.23289 51.9096 0.000116251 43.7491 0.000116251C37.8729 0.000116251 32.1787 1.12477 26.799 3.35755C21.6014 5.50762 16.917 8.60043 12.8946 12.5367C8.88881 16.442 5.68884 21.0946 3.47609 26.2311C1.17525 31.5732 0 37.2461 0 43.0844C0 48.5919 1.12559 54.3309 3.36022 60.1692C5.23069 65.0482 7.91225 70.1092 11.3387 75.2197C16.768 83.3073 24.2333 91.7423 33.5029 100.293C48.8639 114.467 64.076 124.258 64.7215 124.655L68.6445 127.169C70.3826 128.277 72.6172 128.277 74.3553 127.169L78.2783 124.655C78.9239 124.242 94.1193 114.467 109.497 100.293C118.766 91.7423 126.232 83.3073 131.661 75.2197C135.088 70.1092 137.786 65.0482 139.64 60.1692C141.874 54.3309 143 48.5919 143 43.0844C143.016 37.2461 141.841 31.5732 139.54 26.2311V26.2311Z" fill="white"/>
</svg>
