<svg width="512" height="512" viewBox="0 0 512 512" fill="none" xmlns="http://www.w3.org/2000/svg">
<g clip-path="url(#clip0)">
<path d="M469.334 170.682H463.408L390.125 42.709C384.458 32.814 375.312 25.731 364.333 22.793C360.247 21.707 356.098 21.218 351.992 21.356C345.106 21.587 338.342 23.539 332.208 27.095L21.146 208.181C7.54801 216.103 -0.0669888 230.54 1.11597e-05 245.345C0.0330112 252.496 1.87401 259.743 5.66701 266.365L64 368.241V448.003C64 471.533 83.146 490.668 106.667 490.668H469.334C492.855 490.668 512.001 471.534 512.001 448.003V213.347C512 189.817 492.855 170.682 469.334 170.682ZM64 213.334V325.32L24.167 255.75C18.334 245.552 21.792 232.479 31.896 226.604L64.582 207.575C64.322 209.477 64 211.362 64 213.334ZM342.959 45.532C347.792 42.699 353.417 41.938 358.813 43.397C364.251 44.855 368.792 48.376 371.626 53.313L438.836 170.682H127.98L342.959 45.532ZM490.667 448C490.667 459.76 481.104 469.333 469.334 469.333H106.667C94.896 469.333 85.334 459.76 85.334 448V213.334C85.334 201.574 94.897 192.001 106.667 192.001H469.334C481.105 192.001 490.667 201.574 490.667 213.334V448V448Z" fill="url(#paint0_linear)"/>
<path d="M458.667 362.667H330.667C324.771 362.667 320 367.438 320 373.334C320 379.23 324.771 384.001 330.667 384.001H458.667C464.563 384.001 469.334 379.23 469.334 373.334C469.334 367.438 464.563 362.667 458.667 362.667Z" fill="url(#paint1_linear)"/>
<path d="M458.667 298.667H288C282.104 298.667 277.333 303.438 277.333 309.334C277.333 315.23 282.104 320.001 288 320.001H458.667C464.563 320.001 469.334 315.23 469.334 309.334C469.334 303.438 464.563 298.667 458.667 298.667Z" fill="url(#paint2_linear)"/>
<path d="M192 341.334C215.521 341.334 234.667 322.199 234.667 298.667C234.667 275.135 215.521 256 192 256C168.479 256 149.333 275.135 149.333 298.667C149.333 322.199 168.48 341.334 192 341.334ZM192 277.334C203.771 277.334 213.333 286.907 213.333 298.667C213.333 310.427 203.77 320 192 320C180.229 320 170.667 310.427 170.667 298.667C170.667 286.906 180.23 277.334 192 277.334Z" fill="url(#paint3_linear)"/>
<path d="M255.73 367.719C240.813 360.552 217.667 352 192 352C166.333 352 143.187 360.552 128.271 367.719C114.938 374.136 106.667 386.938 106.667 401.125V406C106.667 417.396 116.23 426.667 128 426.667H256C267.771 426.667 277.333 417.396 277.333 406V401.125C277.334 386.938 269.063 374.136 255.73 367.719ZM256 405.334L128 406V401.125C128 395.208 131.646 389.771 137.521 386.948C150.438 380.74 170.354 373.333 192 373.333C213.646 373.333 233.563 380.739 246.479 386.948C252.354 389.771 256 395.208 256 401.125V405.334Z" fill="url(#paint4_linear)"/>
</g>
<defs>
<linearGradient id="paint0_linear" x1="256" y1="21.3332" x2="256" y2="490.668" gradientUnits="userSpaceOnUse">
<stop stop-color="#33B0ED"/>
<stop offset="1" stop-color="#00DAE8"/>
</linearGradient>
<linearGradient id="paint1_linear" x1="394.667" y1="362.667" x2="394.667" y2="384.001" gradientUnits="userSpaceOnUse">
<stop stop-color="#33B0ED"/>
<stop offset="1" stop-color="#00DAE8"/>
</linearGradient>
<linearGradient id="paint2_linear" x1="373.334" y1="298.667" x2="373.334" y2="320.001" gradientUnits="userSpaceOnUse">
<stop stop-color="#33B0ED"/>
<stop offset="1" stop-color="#00DAE8"/>
</linearGradient>
<linearGradient id="paint3_linear" x1="192" y1="256" x2="192" y2="341.334" gradientUnits="userSpaceOnUse">
<stop stop-color="#33B0ED"/>
<stop offset="1" stop-color="#00DAE8"/>
</linearGradient>
<linearGradient id="paint4_linear" x1="192" y1="352" x2="192" y2="426.667" gradientUnits="userSpaceOnUse">
<stop stop-color="#33B0ED"/>
<stop offset="1" stop-color="#00DAE8"/>
</linearGradient>
<clipPath id="clip0">
<rect width="512" height="512" fill="white"/>
</clipPath>
</defs>
</svg>
