<svg width="66" height="68" viewBox="0 0 66 68" fill="none" xmlns="http://www.w3.org/2000/svg">
<circle cx="33" cy="33" r="33" fill="white"/>
<path d="M33 19C28.0284 19 24 22.9032 24 27.738C24 36.0977 33 47 33 47C33 47 42 36.0959 42 27.738C42 22.9049 37.9716 19 33 19V19ZM33 32.5727C31.711 32.5727 30.4749 32.0746 29.5635 31.1879C28.652 30.3013 28.14 29.0987 28.14 27.8448C28.14 26.5908 28.652 25.3883 29.5635 24.5016C30.4749 23.6149 31.711 23.1168 33 23.1168C34.289 23.1168 35.5251 23.6149 36.4365 24.5016C37.348 25.3883 37.86 26.5908 37.86 27.8448C37.86 29.0987 37.348 30.3013 36.4365 31.1879C35.5251 32.0746 34.289 32.5727 33 32.5727Z" fill="#33B0ED"/>
</svg>
