<svg width="160" height="160" viewBox="0 0 160 160" fill="none" xmlns="http://www.w3.org/2000/svg">
<g clip-path="url(#clip0)">
<path d="M106.475 114.057C102.548 114.057 98.9848 112.057 96.9441 108.707C96.1778 107.449 94.5368 107.05 93.2795 107.816C92.0221 108.582 91.6231 110.223 92.3895 111.481C93.8088 113.811 95.7301 115.692 97.9668 117.039L95.2031 129.581L88.5402 121.909C89.7498 120.518 89.4578 118.893 88.4158 117.987C87.3051 117.021 85.6205 117.138 84.6538 118.25L79.9652 123.642L68.1545 110.519C69.1595 108.589 69.7689 106.47 69.9429 104.262C92.8008 110.991 115.666 93.7391 115.666 70.0415V47.9999C115.666 46.5272 114.472 45.3332 113 45.3332C111.527 45.3332 110.333 46.5272 110.333 47.9999V70.0415C110.333 86.7672 96.7258 100.375 79.9998 100.375C63.2739 100.375 49.6666 86.7675 49.6666 70.0415V47.4106C56.1675 47.0416 61.6972 42.9599 63.6679 35.5626C74.7712 42.6732 87.2172 47.2802 100.278 49.1086C101.742 49.3126 103.086 48.2916 103.289 46.8372C103.493 45.3789 102.476 44.0309 101.018 43.8266C87.7181 41.9649 74.7395 36.9873 63.2072 28.8233C61.4442 27.5746 58.9892 28.8449 58.9999 31.0169C59.0002 31.0833 58.9752 37.6969 53.9586 40.7149C50.7862 42.6236 47.5776 42.0072 47.0256 42.0012C45.6626 41.9882 44.5076 43.0109 44.3522 44.3599C44.3229 44.6179 44.3332 43.7396 44.3332 65.6985C42.5519 64.7745 41.3332 62.9359 41.3332 60.8199V28.3333C41.3332 24.8409 44.1742 22 47.6666 22C48.7569 22 49.7376 21.336 50.1426 20.3236C53.7852 11.2173 62.4759 5.33332 72.2839 5.33332H95.1528C108.302 5.33332 119 16.031 119 29.1803V60.8199C119 62.2925 120.194 63.4865 121.666 63.4865C123.139 63.4865 124.333 62.2925 124.333 60.8199V29.1803C124.333 13.0903 111.243 0 95.1528 0H72.2839C60.8439 0 50.6449 6.54332 45.8556 16.807C40.2796 17.68 35.9999 22.5163 35.9999 28.3333V60.8199C35.9999 65.9215 39.5692 70.2092 44.3602 71.3602C44.8579 84.9798 53.0269 96.6745 64.6665 102.24V102.943C64.6665 105.914 63.5079 108.705 61.4042 110.803C57.6732 114.524 52.9716 114.057 53.5236 114.057C38.3116 114.057 25.9999 126.367 25.9999 141.581V157.333C25.9999 158.806 27.1939 160 28.6666 160C30.1393 160 31.3333 158.806 31.3333 157.333V141.581C31.3333 129.316 41.2582 119.39 53.5242 119.39C54.6912 119.39 55.8562 119.266 57.0082 119.02L60.7292 135.907C61.2002 138.045 63.9129 138.732 65.3469 137.081L70.6005 131.032L67.3542 157.002C67.1715 158.464 68.2085 159.796 69.6695 159.979C71.1335 160.161 72.4638 159.123 72.6465 157.664L76.3982 127.65C76.5678 127.838 78.0502 129.501 78.2402 129.668C79.3408 130.634 81.0175 130.536 81.9962 129.433C82.5235 128.829 81.1595 130.397 83.5955 127.595L87.3538 157.663C87.5362 159.123 88.8662 160.161 90.3308 159.979C91.7921 159.796 92.8288 158.463 92.6461 157.002L89.3998 131.032L94.6535 137.081C96.0895 138.735 98.8008 138.041 99.2711 135.906L102.992 119.019C104.122 119.259 105.286 119.39 106.476 119.39C118.74 119.39 128.666 129.315 128.666 141.581V157.333C128.666 158.806 129.86 160 131.333 160C132.806 160 134 158.806 134 157.333V141.581C134 126.368 121.689 114.056 106.475 114.057V114.057ZM64.7965 129.581L62.0322 117.035C63.0489 116.421 64.0025 115.69 64.8815 114.854L71.3469 122.038L64.7965 129.581Z" fill="url(#paint0_linear)"/>
</g>
<defs>
<linearGradient id="paint0_linear" x1="79.9998" y1="0" x2="79.9998" y2="160" gradientUnits="userSpaceOnUse">
<stop stop-color="#33B0ED" stop-opacity="0.81"/>
<stop offset="1" stop-color="#00DAE8"/>
</linearGradient>
<clipPath id="clip0">
<rect width="160" height="160" fill="white"/>
</clipPath>
</defs>
</svg>
