<svg width="60" height="60" viewBox="0 0 60 60" fill="none" xmlns="http://www.w3.org/2000/svg">
<path d="M58.8978 46.9999L45.2067 34.5516C44.5595 33.9634 43.7091 33.6497 42.835 33.6767C41.9608 33.7037 41.1314 34.0694 40.5218 34.6965L32.4621 42.9852C30.5221 42.6147 26.6219 41.3988 22.6072 37.3942C18.5925 33.3762 17.3766 29.4659 17.0163 27.5394L25.2983 19.4763C25.9261 18.8671 26.2923 18.0376 26.3193 17.1632C26.3463 16.2888 26.0321 15.4382 25.4431 14.7914L12.9982 1.10368C12.4089 0.454849 11.5899 0.0612859 10.7152 0.00657369C9.84041 -0.0481385 8.97877 0.240311 8.31326 0.81066L1.00462 7.07857C0.422329 7.66298 0.0747755 8.44077 0.0278939 9.26442C-0.0226266 10.1064 -0.985884 30.0519 14.4801 45.5247C27.9725 59.0137 44.8733 60.0005 49.5279 60.0005C50.2082 60.0005 50.6259 59.9803 50.737 59.9735C51.5605 59.9274 52.3379 59.5783 52.9195 58.9934L59.184 51.6815C59.7567 51.0181 60.0472 50.1571 59.9937 49.2824C59.9402 48.4077 59.5469 47.5886 58.8978 46.9999V46.9999Z" fill="#33B0ED"/>
</svg>
