<svg width="512" height="512" viewBox="0 0 512 512" fill="none" xmlns="http://www.w3.org/2000/svg">
<g clip-path="url(#clip0)">
<path d="M470.952 432.025L439.136 378.222C436.984 374.584 432.291 373.38 428.655 375.53C425.017 377.681 423.812 382.373 425.963 386.011L457.759 439.78C458.638 441.284 458.062 442.546 457.64 443.164C457.22 443.782 456.262 444.781 454.532 444.507L406.071 436.892C397.449 435.539 388.956 440.493 385.9 448.678L368.741 494.634C368.131 496.267 366.79 496.618 366.045 496.682C365.304 496.748 363.92 496.631 363.019 495.09L315.044 413.962C316.531 414.183 318.018 414.3 319.493 414.3C330.607 414.3 341.084 408.16 346.401 397.755L374.749 342.268C376.195 339.438 378.455 337.177 381.286 335.731L392.762 329.868L408.761 356.923C410.19 359.339 412.738 360.681 415.355 360.681C416.679 360.681 418.02 360.337 419.243 359.614C422.881 357.463 424.086 352.771 421.935 349.133L406.417 322.892L436.774 307.383C450.104 300.572 456.432 285.293 451.822 271.053L432.632 211.773C431.653 208.749 431.653 205.552 432.632 202.528L451.822 143.248C456.432 129.007 450.103 113.727 436.774 106.918L381.288 78.57C378.456 77.123 376.196 74.863 374.75 72.032L346.402 16.545C339.592 3.215 324.311 -3.113 310.072 1.497L250.792 20.686C247.767 21.665 244.571 21.665 241.546 20.686L182.266 1.496C168.027 -3.114 152.747 3.215 145.936 16.544L117.587 72.031C116.142 74.861 113.882 77.121 111.051 78.568L55.564 106.916C42.234 113.726 35.906 129.005 40.516 143.246L59.706 202.528C60.685 205.551 60.685 208.748 59.705 211.772L40.516 271.052C35.906 285.292 42.235 300.572 55.564 307.382L101.023 330.607L41.031 432.059C37.396 438.279 37.661 445.84 41.723 451.79C45.784 457.74 52.725 460.743 59.845 459.624L108.306 452.009C109.786 451.774 111.24 452.626 111.764 454.03L128.924 499.986C131.444 506.736 137.467 511.312 144.645 511.928C145.193 511.975 145.738 511.998 146.279 511.998C152.83 511.998 158.817 508.592 162.155 502.878L223.27 399.529L241.546 393.613C244.571 392.634 247.767 392.634 250.792 393.612L293.387 407.401L349.827 502.844C353.185 508.591 359.173 511.999 365.724 511.999C366.264 511.999 366.809 511.976 367.356 511.929C374.534 511.312 380.558 506.737 383.079 499.987L400.238 454.03C400.762 452.627 402.214 451.775 403.696 452.01L452.157 459.625C459.274 460.746 466.219 457.741 470.279 451.791C474.341 445.84 474.606 438.279 470.952 432.025ZM255.504 379.053C249.397 377.077 242.941 377.076 236.834 379.054L177.554 398.244C170.505 400.525 162.937 397.394 159.564 390.792L152.059 376.101C150.137 372.337 145.526 370.847 141.764 372.768C138.001 374.69 136.508 379.3 138.431 383.063L145.936 397.754C152.747 411.083 168.026 417.413 182.266 412.802L201.282 406.646L148.963 495.122C148.084 496.627 146.699 496.746 145.957 496.68C145.212 496.616 143.872 496.265 143.262 494.632L126.102 448.677C123.046 440.491 114.562 435.534 105.931 436.89L57.47 444.505C55.74 444.778 54.783 443.779 54.362 443.162C53.941 442.544 53.365 441.283 54.224 439.813L114.391 338.066C115.684 339.258 116.77 340.667 117.587 342.268L122.338 351.567C124.261 355.331 128.87 356.822 132.633 354.9C136.396 352.977 137.889 348.368 135.966 344.605L131.215 335.306C128.296 329.589 123.73 325.023 118.013 322.103L62.526 293.755C55.926 290.382 52.793 282.817 55.075 275.765L74.263 216.486C76.242 210.378 76.242 203.92 74.264 197.813L55.075 138.532C52.792 131.481 55.926 123.915 62.526 120.543L118.014 92.195C123.731 89.273 128.296 84.707 131.215 78.992L159.563 23.506C162.935 16.905 170.502 13.771 177.553 16.054L236.833 35.244C242.94 37.221 249.397 37.221 255.504 35.244L314.784 16.054C321.835 13.773 329.402 16.905 332.774 23.506L361.121 78.991C364.041 84.707 368.606 89.274 374.324 92.195L429.811 120.543C436.411 123.915 439.544 131.481 437.262 138.532L418.072 197.813C416.095 203.92 416.095 210.377 418.072 216.485L437.262 275.765C439.545 282.816 436.411 290.382 429.811 293.754L394.42 311.835C393.444 311.97 392.478 312.296 391.576 312.828C390.966 313.189 390.431 313.626 389.963 314.112L374.324 322.102C368.607 325.023 364.041 329.588 361.122 335.305L332.774 390.791C329.401 397.392 321.838 400.525 314.784 398.243L255.504 379.053Z" fill="url(#paint0_linear)"/>
<path d="M315.566 79.261C311.85 77.239 307.205 78.616 305.188 82.328C303.169 86.041 304.542 90.687 308.255 92.705C350.253 115.54 376.343 159.392 376.343 207.148C376.343 278.926 317.947 337.321 246.17 337.321C174.393 337.321 115.997 278.927 115.997 207.149C115.997 135.371 174.392 76.976 246.169 76.976C257.084 76.976 267.927 78.328 278.399 80.995C282.489 82.038 286.66 79.564 287.702 75.468C288.745 71.373 286.271 67.207 282.175 66.164C270.47 63.183 258.356 61.672 246.169 61.672C165.953 61.672 100.693 126.933 100.693 207.149C100.693 287.365 165.953 352.625 246.169 352.625C326.385 352.625 391.646 287.365 391.646 207.149C391.646 153.78 362.494 104.777 315.566 79.261Z" fill="url(#paint1_linear)"/>
<path d="M315.224 207.036C320.445 201.947 322.289 194.477 320.035 187.542C317.782 180.608 311.9 175.648 304.684 174.6L277.967 170.718C276.757 170.542 275.712 169.782 275.171 168.687L263.223 144.476V144.475C259.996 137.937 253.462 133.875 246.17 133.875C238.878 133.875 232.344 137.937 229.117 144.475L217.17 168.684C216.628 169.781 215.583 170.541 214.373 170.717L187.656 174.599C180.44 175.647 174.557 180.607 172.305 187.541C170.051 194.476 171.895 201.945 177.116 207.035L196.45 225.88C197.325 226.733 197.724 227.962 197.518 229.166L192.954 255.777C191.722 262.963 194.62 270.09 200.519 274.375C203.853 276.797 207.752 278.028 211.679 278.028C214.701 278.028 217.739 277.299 220.546 275.823L244.443 263.26C245.525 262.691 246.816 262.691 247.898 263.26L271.795 275.823C278.249 279.215 285.924 278.662 291.822 274.376C297.721 270.09 300.62 262.964 299.387 255.777L294.823 229.166C294.617 227.962 295.016 226.733 295.891 225.881L315.224 207.036ZM285.207 214.924C280.725 219.294 278.68 225.586 279.739 231.755L284.303 258.365C284.655 260.418 283.386 261.588 282.825 261.996C282.264 262.405 280.759 263.249 278.914 262.278L255.017 249.715C249.475 246.802 242.86 246.802 237.318 249.715L213.421 262.278C211.58 263.248 210.072 262.405 209.51 261.996C208.949 261.588 207.681 260.418 208.032 258.365L212.596 231.755C213.655 225.585 211.611 219.293 207.128 214.923L187.794 196.078C186.302 194.624 186.64 192.932 186.854 192.272C187.068 191.612 187.79 190.045 189.851 189.745L216.569 185.863C222.763 184.963 228.115 181.074 230.887 175.46L242.835 151.25C243.757 149.382 245.47 149.181 246.165 149.181C246.86 149.181 248.573 149.383 249.495 151.25L261.444 175.462C264.215 181.075 269.567 184.963 275.762 185.864L302.479 189.746C304.54 190.046 305.262 191.613 305.476 192.273C305.69 192.933 306.028 194.625 304.536 196.079L285.207 214.924Z" fill="url(#paint2_linear)"/>
</g>
<defs>
<linearGradient id="paint0_linear" x1="256" y1="-0.000211239" x2="256" y2="511.999" gradientUnits="userSpaceOnUse">
<stop stop-color="#33B0ED"/>
<stop offset="1" stop-color="#00DAE8"/>
</linearGradient>
<linearGradient id="paint1_linear" x1="246.169" y1="61.672" x2="246.169" y2="352.625" gradientUnits="userSpaceOnUse">
<stop stop-color="#33B0ED"/>
<stop offset="1" stop-color="#00DAE8"/>
</linearGradient>
<linearGradient id="paint2_linear" x1="246.17" y1="133.875" x2="246.17" y2="278.028" gradientUnits="userSpaceOnUse">
<stop stop-color="#33B0ED"/>
<stop offset="1" stop-color="#00DAE8"/>
</linearGradient>
<clipPath id="clip0">
<rect width="511.999" height="511.999" fill="white"/>
</clipPath>
</defs>
</svg>
