<svg width="134" height="128" viewBox="0 0 134 128" fill="none" xmlns="http://www.w3.org/2000/svg">
<path d="M129.669 45.0724L89.4984 39.2327L71.5411 2.81708C71.0506 1.82005 70.2437 1.01292 69.247 0.522316C66.7472 -0.71211 63.7095 0.316578 62.4596 2.81708L44.5023 39.2327L4.33166 45.0724C3.22416 45.2307 2.21159 45.753 1.43634 46.5443C0.499104 47.5078 -0.0173547 48.8042 0.000445309 50.1485C0.0182453 51.4928 0.568847 52.775 1.53127 53.7134L30.5952 82.0578L23.7287 122.082C23.5677 123.013 23.6707 123.97 24.026 124.846C24.3814 125.721 24.9748 126.48 25.7391 127.035C26.5034 127.59 27.4079 127.92 28.3502 127.987C29.2924 128.054 30.2345 127.856 31.0699 127.415L67.0003 108.519L102.931 127.415C103.912 127.937 105.051 128.111 106.143 127.921C108.895 127.447 110.747 124.835 110.272 122.082L103.405 82.0578L132.469 53.7134C133.26 52.938 133.783 51.9251 133.941 50.8173C134.368 48.0477 132.438 45.4839 129.669 45.0724V45.0724Z" fill="white"/>
</svg>
