<svg width="172" height="120" viewBox="0 0 172 120" fill="none" xmlns="http://www.w3.org/2000/svg">
<path d="M25.8 51.4286C35.2869 51.4286 43 43.7411 43 34.2857C43 24.8304 35.2869 17.1429 25.8 17.1429C16.3131 17.1429 8.6 24.8304 8.6 34.2857C8.6 43.7411 16.3131 51.4286 25.8 51.4286ZM146.2 51.4286C155.687 51.4286 163.4 43.7411 163.4 34.2857C163.4 24.8304 155.687 17.1429 146.2 17.1429C136.713 17.1429 129 24.8304 129 34.2857C129 43.7411 136.713 51.4286 146.2 51.4286ZM154.8 60H137.6C132.87 60 128.597 61.9018 125.479 64.9821C136.31 70.9018 143.996 81.5893 145.663 94.2857H163.4C168.157 94.2857 172 90.4554 172 85.7143V77.1429C172 67.6875 164.287 60 154.8 60ZM86 60C102.636 60 116.1 46.5804 116.1 30C116.1 13.4196 102.636 0 86 0C69.3644 0 55.9 13.4196 55.9 30C55.9 46.5804 69.3644 60 86 60ZM106.64 68.5714H104.409C98.8194 71.25 92.6113 72.8571 86 72.8571C79.3888 72.8571 73.2075 71.25 67.5906 68.5714H65.36C48.2675 68.5714 34.4 82.3929 34.4 99.4286V107.143C34.4 114.241 40.1781 120 47.3 120H124.7C131.822 120 137.6 114.241 137.6 107.143V99.4286C137.6 82.3929 123.733 68.5714 106.64 68.5714ZM46.5206 64.9821C43.4031 61.9018 39.13 60 34.4 60H17.2C7.71313 60 0 67.6875 0 77.1429V85.7143C0 90.4554 3.84312 94.2857 8.6 94.2857H26.3106C28.0038 81.5893 35.69 70.9018 46.5206 64.9821Z" fill="white"/>
</svg>
